<mxfile host="app.diagrams.net" modified="2022-07-29T11:50:10.727Z" agent="5.0 (Windows NT 10.0; WOW64) AppleWebKit/537.36 (KHTML, like Gecko) Chrome/103.0.0.0 Safari/537.36" etag="wdTL8_2eYAR6cmKHP3lr" version="20.0.1" type="github">
  <diagram name="Page-1" id="edf60f1a-56cd-e834-aa8a-f176f3a09ee4">
    <mxGraphModel dx="1422" dy="794" grid="1" gridSize="10" guides="1" tooltips="1" connect="1" arrows="1" fold="1" page="1" pageScale="1" pageWidth="1100" pageHeight="850" background="none" math="0" shadow="0">
      <root>
        <mxCell id="0" />
        <mxCell id="1" parent="0" />
        <mxCell id="UMNf56YSut8aNhK5QYXs-3" style="edgeStyle=orthogonalEdgeStyle;rounded=0;orthogonalLoop=1;jettySize=auto;html=1;exitX=0.5;exitY=1;exitDx=0;exitDy=0;" edge="1" parent="1" source="UMNf56YSut8aNhK5QYXs-1" target="UMNf56YSut8aNhK5QYXs-2">
          <mxGeometry relative="1" as="geometry" />
        </mxCell>
        <mxCell id="UMNf56YSut8aNhK5QYXs-1" value="Create Session with&lt;br&gt;APN= &quot;xyz&quot;" style="rounded=1;whiteSpace=wrap;html=1;shadow=1;labelBackgroundColor=none;strokeWidth=1;fontFamily=Verdana;fontSize=8;align=center;" vertex="1" parent="1">
          <mxGeometry x="760" y="100" width="100" height="40" as="geometry" />
        </mxCell>
        <mxCell id="UMNf56YSut8aNhK5QYXs-12" value="YES" style="edgeStyle=orthogonalEdgeStyle;rounded=0;orthogonalLoop=1;jettySize=auto;html=1;exitX=0;exitY=0.5;exitDx=0;exitDy=0;entryX=0.5;entryY=0;entryDx=0;entryDy=0;" edge="1" parent="1" source="UMNf56YSut8aNhK5QYXs-2" target="UMNf56YSut8aNhK5QYXs-5">
          <mxGeometry relative="1" as="geometry" />
        </mxCell>
        <mxCell id="UMNf56YSut8aNhK5QYXs-13" value="NO" style="edgeStyle=orthogonalEdgeStyle;rounded=0;orthogonalLoop=1;jettySize=auto;html=1;exitX=1;exitY=0.5;exitDx=0;exitDy=0;entryX=0.5;entryY=0;entryDx=0;entryDy=0;" edge="1" parent="1" source="UMNf56YSut8aNhK5QYXs-2" target="UMNf56YSut8aNhK5QYXs-4">
          <mxGeometry relative="1" as="geometry" />
        </mxCell>
        <mxCell id="UMNf56YSut8aNhK5QYXs-2" value="Roaming?" style="rhombus;whiteSpace=wrap;html=1;rounded=0;shadow=1;labelBackgroundColor=none;strokeWidth=1;fontFamily=Verdana;fontSize=8;align=center;" vertex="1" parent="1">
          <mxGeometry x="760" y="180" width="100" height="60" as="geometry" />
        </mxCell>
        <mxCell id="UMNf56YSut8aNhK5QYXs-10" style="edgeStyle=orthogonalEdgeStyle;rounded=0;orthogonalLoop=1;jettySize=auto;html=1;exitX=0.5;exitY=1;exitDx=0;exitDy=0;entryX=1;entryY=0.5;entryDx=0;entryDy=0;entryPerimeter=0;" edge="1" parent="1" source="UMNf56YSut8aNhK5QYXs-4" target="UMNf56YSut8aNhK5QYXs-8">
          <mxGeometry relative="1" as="geometry" />
        </mxCell>
        <mxCell id="UMNf56YSut8aNhK5QYXs-4" value="Local network will correct APN" style="whiteSpace=wrap;html=1;rounded=0;shadow=1;labelBackgroundColor=none;strokeWidth=1;fontFamily=Verdana;fontSize=8;align=center;" vertex="1" parent="1">
          <mxGeometry x="900" y="250" width="120" height="40" as="geometry" />
        </mxCell>
        <mxCell id="UMNf56YSut8aNhK5QYXs-11" style="edgeStyle=orthogonalEdgeStyle;rounded=0;orthogonalLoop=1;jettySize=auto;html=1;exitX=0.5;exitY=1;exitDx=0;exitDy=0;" edge="1" parent="1" source="UMNf56YSut8aNhK5QYXs-5" target="UMNf56YSut8aNhK5QYXs-7">
          <mxGeometry relative="1" as="geometry" />
        </mxCell>
        <mxCell id="UMNf56YSut8aNhK5QYXs-5" value="Roaming network will check HLR profile" style="whiteSpace=wrap;html=1;rounded=0;shadow=1;labelBackgroundColor=none;strokeWidth=1;fontFamily=Verdana;fontSize=8;align=center;" vertex="1" parent="1">
          <mxGeometry x="630" y="250" width="120" height="40" as="geometry" />
        </mxCell>
        <mxCell id="UMNf56YSut8aNhK5QYXs-24" value="YES" style="edgeStyle=orthogonalEdgeStyle;rounded=0;orthogonalLoop=1;jettySize=auto;html=1;entryX=0.5;entryY=0;entryDx=0;entryDy=0;entryPerimeter=0;" edge="1" parent="1" source="UMNf56YSut8aNhK5QYXs-7" target="UMNf56YSut8aNhK5QYXs-8">
          <mxGeometry relative="1" as="geometry" />
        </mxCell>
        <mxCell id="UMNf56YSut8aNhK5QYXs-25" value="NO" style="edgeStyle=orthogonalEdgeStyle;rounded=0;orthogonalLoop=1;jettySize=auto;html=1;entryX=0.5;entryY=0;entryDx=0;entryDy=0;" edge="1" parent="1" source="UMNf56YSut8aNhK5QYXs-7" target="UMNf56YSut8aNhK5QYXs-21">
          <mxGeometry relative="1" as="geometry" />
        </mxCell>
        <mxCell id="UMNf56YSut8aNhK5QYXs-7" value="Does &quot;xyz&quot; exist?" style="rhombus;whiteSpace=wrap;html=1;rounded=0;shadow=1;labelBackgroundColor=none;strokeWidth=1;fontFamily=Verdana;fontSize=8;align=center;" vertex="1" parent="1">
          <mxGeometry x="480" y="345" width="100" height="60" as="geometry" />
        </mxCell>
        <mxCell id="UMNf56YSut8aNhK5QYXs-8" value="Connect" style="strokeWidth=1;html=1;shape=mxgraph.flowchart.terminator;whiteSpace=wrap;rounded=0;shadow=1;labelBackgroundColor=none;fontFamily=Verdana;fontSize=8;align=center;fillColor=#d5e8d4;strokeColor=#82b366;" vertex="1" parent="1">
          <mxGeometry x="730" y="730" width="60" height="30" as="geometry" />
        </mxCell>
        <mxCell id="UMNf56YSut8aNhK5QYXs-18" value="Terminate" style="strokeWidth=1;html=1;shape=mxgraph.flowchart.terminator;whiteSpace=wrap;rounded=0;shadow=1;labelBackgroundColor=none;fontFamily=Verdana;fontSize=8;align=center;fillColor=#f8cecc;strokeColor=#b85450;" vertex="1" parent="1">
          <mxGeometry x="280" y="730" width="60" height="30" as="geometry" />
        </mxCell>
        <mxCell id="UMNf56YSut8aNhK5QYXs-26" value="NO" style="edgeStyle=orthogonalEdgeStyle;rounded=0;orthogonalLoop=1;jettySize=auto;html=1;entryX=0.5;entryY=0;entryDx=0;entryDy=0;entryPerimeter=0;" edge="1" parent="1" source="UMNf56YSut8aNhK5QYXs-21" target="UMNf56YSut8aNhK5QYXs-18">
          <mxGeometry relative="1" as="geometry" />
        </mxCell>
        <mxCell id="UMNf56YSut8aNhK5QYXs-29" value="YES" style="edgeStyle=orthogonalEdgeStyle;rounded=0;orthogonalLoop=1;jettySize=auto;html=1;" edge="1" parent="1" source="UMNf56YSut8aNhK5QYXs-21" target="UMNf56YSut8aNhK5QYXs-28">
          <mxGeometry relative="1" as="geometry" />
        </mxCell>
        <mxCell id="UMNf56YSut8aNhK5QYXs-21" value="Does &quot;*&quot; exist?" style="rhombus;whiteSpace=wrap;html=1;rounded=0;shadow=1;labelBackgroundColor=none;strokeWidth=1;fontFamily=Verdana;fontSize=8;align=center;" vertex="1" parent="1">
          <mxGeometry x="370" y="440" width="100" height="60" as="geometry" />
        </mxCell>
        <mxCell id="UMNf56YSut8aNhK5QYXs-32" style="edgeStyle=orthogonalEdgeStyle;rounded=0;orthogonalLoop=1;jettySize=auto;html=1;entryX=0.5;entryY=0;entryDx=0;entryDy=0;" edge="1" parent="1" source="UMNf56YSut8aNhK5QYXs-28" target="UMNf56YSut8aNhK5QYXs-31">
          <mxGeometry relative="1" as="geometry" />
        </mxCell>
        <mxCell id="UMNf56YSut8aNhK5QYXs-28" value="Send request to Home Network" style="whiteSpace=wrap;html=1;rounded=0;shadow=1;labelBackgroundColor=none;strokeWidth=1;fontFamily=Verdana;fontSize=8;align=center;" vertex="1" parent="1">
          <mxGeometry x="490" y="550" width="120" height="40" as="geometry" />
        </mxCell>
        <mxCell id="UMNf56YSut8aNhK5QYXs-33" value="Accept" style="edgeStyle=orthogonalEdgeStyle;rounded=0;orthogonalLoop=1;jettySize=auto;html=1;entryX=0;entryY=0.5;entryDx=0;entryDy=0;entryPerimeter=0;" edge="1" parent="1" source="UMNf56YSut8aNhK5QYXs-31" target="UMNf56YSut8aNhK5QYXs-8">
          <mxGeometry relative="1" as="geometry" />
        </mxCell>
        <mxCell id="UMNf56YSut8aNhK5QYXs-35" value="Reject" style="edgeStyle=orthogonalEdgeStyle;rounded=0;orthogonalLoop=1;jettySize=auto;html=1;entryX=1;entryY=0.5;entryDx=0;entryDy=0;entryPerimeter=0;" edge="1" parent="1" source="UMNf56YSut8aNhK5QYXs-31" target="UMNf56YSut8aNhK5QYXs-18">
          <mxGeometry relative="1" as="geometry" />
        </mxCell>
        <mxCell id="UMNf56YSut8aNhK5QYXs-31" value="What to do&lt;br&gt;&amp;nbsp;with &quot;xyz&quot;?" style="rhombus;whiteSpace=wrap;html=1;rounded=0;shadow=1;labelBackgroundColor=none;strokeWidth=1;fontFamily=Verdana;fontSize=8;align=center;" vertex="1" parent="1">
          <mxGeometry x="500" y="630" width="100" height="60" as="geometry" />
        </mxCell>
      </root>
    </mxGraphModel>
  </diagram>
</mxfile>
